<svg width="336" height="38" viewBox="0 0 336 38" fill="none" xmlns="http://www.w3.org/2000/svg">
<path d="M0.3125 2.73438H10.9766C15.5391 2.73438 18.9922 3.375 21.3359 4.65625C23.6797 5.9375 24.8516 8.1875 24.8516 11.4062C24.8516 12.7031 24.6406 13.875 24.2188 14.9219C23.8125 15.9688 23.2188 16.8281 22.4375 17.5C21.6562 18.1719 20.7031 18.6094 19.5781 18.8125V19.0469C20.7188 19.2812 21.75 19.6875 22.6719 20.2656C23.5938 20.8281 24.3281 21.6562 24.875 22.75C25.4375 23.8281 25.7188 25.2656 25.7188 27.0625C25.7188 29.1406 25.2109 30.9219 24.1953 32.4062C23.1797 33.8906 21.7266 35.0312 19.8359 35.8281C17.9609 36.6094 15.7266 37 13.1328 37H0.3125V2.73438ZM7.57812 16.3047H11.7969C13.9062 16.3047 15.3672 15.9766 16.1797 15.3203C16.9922 14.6484 17.3984 13.6641 17.3984 12.3672C17.3984 11.0547 16.9141 10.1172 15.9453 9.55469C14.9922 8.97656 13.4766 8.6875 11.3984 8.6875H7.57812V16.3047ZM7.57812 22.0703V31H12.3125C14.5 31 16.0234 30.5781 16.8828 29.7344C17.7422 28.8906 18.1719 27.7578 18.1719 26.3359C18.1719 25.4922 17.9844 24.75 17.6094 24.1094C17.2344 23.4688 16.6016 22.9688 15.7109 22.6094C14.8359 22.25 13.625 22.0703 12.0781 22.0703H7.57812ZM46.625 10.3047C46.9844 10.3047 47.3984 10.3281 47.8672 10.375C48.3516 10.4062 48.7422 10.4531 49.0391 10.5156L48.5 17.2188C48.2656 17.1406 47.9297 17.0859 47.4922 17.0547C47.0703 17.0078 46.7031 16.9844 46.3906 16.9844C45.4688 16.9844 44.5703 17.1016 43.6953 17.3359C42.8359 17.5703 42.0625 17.9531 41.375 18.4844C40.6875 19 40.1406 19.6875 39.7344 20.5469C39.3438 21.3906 39.1484 22.4297 39.1484 23.6641V37H32V10.7969H37.4141L38.4688 15.2031H38.8203C39.3359 14.3125 39.9766 13.5 40.7422 12.7656C41.5234 12.0156 42.4062 11.4219 43.3906 10.9844C44.3906 10.5312 45.4688 10.3047 46.625 10.3047ZM77.8438 10.7969V37H72.3594L71.3984 33.6484H71.0234C70.4609 34.5391 69.7578 35.2656 68.9141 35.8281C68.0703 36.3906 67.1406 36.8047 66.125 37.0703C65.1094 37.3359 64.0547 37.4688 62.9609 37.4688C61.0859 37.4688 59.4531 37.1406 58.0625 36.4844C56.6719 35.8125 55.5859 34.7734 54.8047 33.3672C54.0391 31.9609 53.6562 30.1328 53.6562 27.8828V10.7969H60.8047V26.1016C60.8047 27.9766 61.1406 29.3906 61.8125 30.3438C62.4844 31.2969 63.5547 31.7734 65.0234 31.7734C66.4766 31.7734 67.6172 31.4453 68.4453 30.7891C69.2734 30.1172 69.8516 29.1406 70.1797 27.8594C70.5234 26.5625 70.6953 24.9844 70.6953 23.125V10.7969H77.8438ZM100.227 10.3047C103.023 10.3047 105.273 11.0703 106.977 12.6016C108.68 14.1172 109.531 16.5547 109.531 19.9141V37H102.383V21.6953C102.383 19.8203 102.039 18.4062 101.352 17.4531C100.68 16.5 99.6172 16.0234 98.1641 16.0234C95.9766 16.0234 94.4844 16.7656 93.6875 18.25C92.8906 19.7344 92.4922 21.875 92.4922 24.6719V37H85.3438V10.7969H90.8047L91.7656 14.1484H92.1641C92.7266 13.2422 93.4219 12.5078 94.25 11.9453C95.0938 11.3828 96.0234 10.9688 97.0391 10.7031C98.0703 10.4375 99.1328 10.3047 100.227 10.3047ZM140.703 23.8516C140.703 26.0391 140.406 27.9766 139.812 29.6641C139.234 31.3516 138.383 32.7812 137.258 33.9531C136.148 35.1094 134.805 35.9844 133.227 36.5781C131.664 37.1719 129.898 37.4688 127.93 37.4688C126.086 37.4688 124.391 37.1719 122.844 36.5781C121.312 35.9844 119.977 35.1094 118.836 33.9531C117.711 32.7812 116.836 31.3516 116.211 29.6641C115.602 27.9766 115.297 26.0391 115.297 23.8516C115.297 20.9453 115.812 18.4844 116.844 16.4688C117.875 14.4531 119.344 12.9219 121.25 11.875C123.156 10.8281 125.43 10.3047 128.07 10.3047C130.523 10.3047 132.695 10.8281 134.586 11.875C136.492 12.9219 137.984 14.4531 139.062 16.4688C140.156 18.4844 140.703 20.9453 140.703 23.8516ZM122.586 23.8516C122.586 25.5703 122.773 27.0156 123.148 28.1875C123.523 29.3594 124.109 30.2422 124.906 30.8359C125.703 31.4297 126.742 31.7266 128.023 31.7266C129.289 31.7266 130.312 31.4297 131.094 30.8359C131.891 30.2422 132.469 29.3594 132.828 28.1875C133.203 27.0156 133.391 25.5703 133.391 23.8516C133.391 22.1172 133.203 20.6797 132.828 19.5391C132.469 18.3828 131.891 17.5156 131.094 16.9375C130.297 16.3594 129.258 16.0703 127.977 16.0703C126.086 16.0703 124.711 16.7188 123.852 18.0156C123.008 19.3125 122.586 21.2578 122.586 23.8516ZM180.617 37L178.133 28.8438H165.641L163.156 37H155.328L167.422 2.59375H176.305L188.445 37H180.617ZM176.398 22.75L173.914 14.7812C173.758 14.25 173.547 13.5703 173.281 12.7422C173.031 11.8984 172.773 11.0469 172.508 10.1875C172.258 9.3125 172.055 8.55469 171.898 7.91406C171.742 8.55469 171.523 9.35156 171.242 10.3047C170.977 11.2422 170.719 12.1328 170.469 12.9766C170.219 13.8203 170.039 14.4219 169.93 14.7812L167.469 22.75H176.398ZM199.367 37H192.219V0.53125H199.367V37ZM214.039 0.53125V9.01562C214.039 10 214.008 10.9766 213.945 11.9453C213.898 12.9141 213.836 13.6641 213.758 14.1953H214.039C214.727 13.1172 215.664 12.2031 216.852 11.4531C218.039 10.6875 219.578 10.3047 221.469 10.3047C224.406 10.3047 226.789 11.4531 228.617 13.75C230.445 16.0469 231.359 19.4141 231.359 23.8516C231.359 26.8359 230.938 29.3438 230.094 31.375C229.25 33.3906 228.07 34.9141 226.555 35.9453C225.039 36.9609 223.281 37.4688 221.281 37.4688C219.359 37.4688 217.844 37.125 216.734 36.4375C215.625 35.75 214.727 34.9766 214.039 34.1172H213.547L212.352 37H206.891V0.53125H214.039ZM219.172 16.0234C217.922 16.0234 216.93 16.2812 216.195 16.7969C215.461 17.3125 214.922 18.0859 214.578 19.1172C214.25 20.1484 214.07 21.4531 214.039 23.0312V23.8047C214.039 26.3516 214.414 28.3047 215.164 29.6641C215.914 31.0078 217.281 31.6797 219.266 31.6797C220.734 31.6797 221.898 31 222.758 29.6406C223.633 28.2812 224.07 26.3203 224.07 23.7578C224.07 21.1953 223.633 19.2656 222.758 17.9688C221.883 16.6719 220.688 16.0234 219.172 16.0234ZM248 10.2578C251.516 10.2578 254.211 11.0234 256.086 12.5547C257.961 14.0859 258.898 16.4141 258.898 19.5391V37H253.906L252.523 33.4375H252.336C251.586 34.375 250.82 35.1406 250.039 35.7344C249.258 36.3281 248.359 36.7656 247.344 37.0469C246.328 37.3281 245.094 37.4688 243.641 37.4688C242.094 37.4688 240.703 37.1719 239.469 36.5781C238.25 35.9844 237.289 35.0781 236.586 33.8594C235.883 32.625 235.531 31.0625 235.531 29.1719C235.531 26.3906 236.508 24.3438 238.461 23.0312C240.414 21.7031 243.344 20.9688 247.25 20.8281L251.797 20.6875V19.5391C251.797 18.1641 251.438 17.1562 250.719 16.5156C250 15.875 249 15.5547 247.719 15.5547C246.453 15.5547 245.211 15.7344 243.992 16.0938C242.773 16.4531 241.555 16.9062 240.336 17.4531L237.969 12.625C239.359 11.8906 240.914 11.3125 242.633 10.8906C244.367 10.4688 246.156 10.2578 248 10.2578ZM251.797 24.8594L249.031 24.9531C246.719 25.0156 245.109 25.4297 244.203 26.1953C243.312 26.9609 242.867 27.9688 242.867 29.2188C242.867 30.3125 243.188 31.0938 243.828 31.5625C244.469 32.0156 245.305 32.2422 246.336 32.2422C247.867 32.2422 249.156 31.7891 250.203 30.8828C251.266 29.9766 251.797 28.6875 251.797 27.0156V24.8594ZM287.867 32.2422L264.594 21.9766V18.625L287.867 7V12.625L271.836 20.0547L287.867 26.6406V32.2422ZM309.594 2.73438L296.82 37H290.328L303.102 2.73438H309.594ZM311.891 26.6406L327.922 20.0547L311.891 12.625V7L335.164 18.625V21.9766L311.891 32.2422V26.6406Z" fill="#2E2E2E"/>
</svg>
